# xmcd
#
# Track frame offsets:
#	150
#	29552
#	42374
#	69454
#	89040
#	103932
#	121944
#	136101
#	159838
#	186998
#	210269
#	224553
#	239893
#	257285
#	270285
#	285935
#	301372
#	321873
#
# Disc length: 4499 seconds
#
# Revision: 0
# Processed by: cddbd v1.5.2PL0 Copyright (c) Steve Scherf et al.
# Submitted via: dBpowerAMP V4.0
#
DISCID=05119112
DTITLE=Various Artist - Best Of Teresa Valencia
DYEAR=1900
DGENRE=Blues
TTITLE0=Teresa Valencia - Iliw
TTITLE1=Teresa Valencia - Masmasnaayanak
TTITLE2=Teresa Valencia - Rabaw Kadaratan
TTITLE3=Teresa Valencia - Apay
TTITLE4=Teresa Valencia - Pannaka-allilaw
TTITLE5=Teresa Valencia - Nupay Lagip Laeng
TTITLE6=Teresa Valencia - Sadino Man
TTITLE7=Teresa Valencia - Dikan Agsangsangit
TTITLE8=Teresa Valencia - No Koman Mabalin
TTITLE9=Teresa Valencia - Nagbanagen 'Di Ayan-ayattan
TTITLE10=Noraline Domingo - No Innak Malagip
TTITLE11=Noraline Domingo - No Kas Pangarigan
TTITLE12=Noraline Domingo - Asiak Pay
TTITLE13=Noraline Domingo - Pumanawkan San
TTITLE14=Noraline Domingo - Iliwko Kenka
TTITLE15=Bobby Yacapin - Gapu Ta Patpatgenka
TTITLE16=Bobby Yacapin - Iti Panagmaymaysak
TTITLE17=Bobby Yacapin - Tungpal Tanem
EXTD=
EXTT0=
EXTT1=
EXTT2=
EXTT3=
EXTT4=
EXTT5=
EXTT6=
EXTT7=
EXTT8=
EXTT9=
EXTT10=
EXTT11=
EXTT12=
EXTT13=
EXTT14=
EXTT15=
EXTT16=
EXTT17=
PLAYORDER=
